<svg width="50" height="48" viewBox="0 0 50 48" fill="none" xmlns="http://www.w3.org/2000/svg">
<path d="M10.5 5.5C10.5 8.26142 8.26142 10.5 5.5 10.5C2.73858 10.5 0.5 8.26142 0.5 5.5C0.5 2.73858 2.73858 0.5 5.5 0.5C8.26142 0.5 10.5 2.73858 10.5 5.5Z" fill="#ED1954" stroke="white"/>
<path d="M17.9471 17.3418C17.9471 15.9611 19.0664 14.8418 20.4471 14.8418H24.9979C25.9633 14.8418 26.7458 15.6244 26.7458 16.5897V18.7515C26.7458 19.0752 27.0083 19.3376 27.332 19.3376C27.5471 19.3376 27.746 19.22 27.8488 19.0285C29.1432 16.6154 32.2997 14.0293 37.0473 14.0293C42.0999 14.0293 44.9793 15.6796 46.635 18.306C48.3241 20.9853 48.8052 24.7743 48.8052 29.1916V44.221C48.8052 45.6017 47.6859 46.721 46.3052 46.721H42.0921C40.7114 46.721 39.5921 45.6017 39.5921 44.221V31.231C39.5921 29.3481 39.5823 27.068 38.8689 25.2607C38.5065 24.3425 37.9539 23.5205 37.1103 22.9315C36.2657 22.3418 35.1723 22.0155 33.781 22.0155C32.3862 22.0155 31.2508 22.2881 30.3374 22.7944C29.4211 23.3023 28.7579 24.0289 28.2852 24.888C27.3526 26.5826 27.1548 28.8063 27.1548 30.9601V44.2183C27.1548 45.599 26.0355 46.7183 24.6548 46.7183H20.4471C19.0664 46.7183 17.9471 45.599 17.9471 44.2183V17.3418ZM1.3125 17.3418C1.3125 15.9611 2.43179 14.8418 3.8125 14.8418H8.03646C9.41717 14.8418 10.5365 15.9611 10.5365 17.3418V44.2183C10.5365 45.599 9.41717 46.7183 8.03646 46.7183H3.8125C2.43179 46.7183 1.3125 45.599 1.3125 44.2183V17.3418Z" fill="#ED1954" stroke="white"/>
</svg>
