<svg width="50" height="42" viewBox="0 0 50 42" fill="none" xmlns="http://www.w3.org/2000/svg">
<path d="M0.738589 37.3552C5.44776 40.4027 10.9081 42.0138 16.4799 41.9999C24.7102 41.9999 32.2527 38.7688 37.7192 32.8902C42.9488 27.2681 45.8281 19.7135 45.685 12.0477C47.6684 10.311 50 6.99912 50 3.76803C50 3.48343 49.9266 3.20391 49.7871 2.95769C49.6477 2.71147 49.4471 2.50728 49.2057 2.36586C48.9644 2.22444 48.6908 2.1508 48.4127 2.15233C48.1346 2.15387 47.8618 2.23056 47.622 2.37464C45.759 3.49441 44.0599 3.78824 42.3124 3.28338C38.7444 -0.274855 33.4319 -1.02409 28.959 1.44366C25.0476 3.59839 22.8729 7.54032 23.0682 11.8437C16.4348 11.0167 10.3622 7.62321 6.09653 2.3595C5.93453 2.1589 5.72758 2.00127 5.49328 1.9001C5.25897 1.79894 5.00426 1.75721 4.7508 1.77842C4.49734 1.79964 4.25264 1.88319 4.03752 2.02198C3.8224 2.16077 3.64322 2.35067 3.51524 2.57555C1.46482 6.16811 1.48653 10.3322 3.26955 13.6945C2.88336 13.7605 2.53286 13.9653 2.28122 14.2723C2.02957 14.5792 1.89332 14.968 1.89701 15.3687C1.90236 17.0037 2.25155 18.6185 2.92083 20.1032C3.59012 21.588 4.56384 22.9079 5.77584 23.9734C5.56093 24.185 5.40897 24.4545 5.33755 24.7508C5.26612 25.0471 5.27816 25.358 5.37227 25.6475C5.88742 27.2208 6.72658 28.6627 7.83306 29.8756C8.93954 31.0885 10.2875 32.0442 11.786 32.6782C8.54658 34.2614 4.96376 34.7895 1.77465 34.3887C0.123857 34.1605 -0.692159 36.4303 0.73465 37.3542L0.738589 37.3552ZM16.9111 33.2325C18.0951 32.3046 17.4656 30.37 15.9835 30.3377C14.7197 30.3105 13.479 29.9858 12.3575 29.3889C11.236 28.792 10.2639 27.9389 9.51653 26.8956C10.2448 26.8503 10.9669 26.7319 11.6725 26.5422C13.274 26.0989 13.198 23.7331 11.5739 23.3999C10.1501 23.1083 8.82901 22.4306 7.7488 21.4377C6.6686 20.4447 5.86894 19.1731 5.43345 17.7556C6.22182 17.9568 7.02972 18.0668 7.84204 18.0838C9.43956 18.0919 10.0434 15.9957 8.74095 15.1192C5.80445 13.1402 4.55131 9.64357 5.38115 6.35695C10.5477 11.7036 17.4863 14.8725 24.8256 15.2374C25.8794 15.305 26.6708 14.2903 26.4399 13.2624C25.4394 8.82774 27.8608 5.71881 30.4598 4.28703C33.0322 2.86535 37.1627 2.42105 40.3271 5.81975C41.2675 6.83451 44.4418 6.87391 46.056 6.48819C45.3328 7.88362 44.2188 9.2084 43.1768 9.95357C42.9582 10.1103 42.782 10.3211 42.6647 10.5664C42.5474 10.8116 42.4927 11.0833 42.5058 11.356C42.8442 18.4321 40.2679 25.4679 35.4369 30.6568C30.5703 35.8841 23.8399 38.7648 16.4828 38.7648C13.5902 38.7676 10.7166 38.2857 7.97624 37.3381C11.2261 36.6987 14.2847 35.293 16.9111 33.2325Z" fill="#ED1954"/>
</svg>
